<?xml version="1.0" encoding="iso-8859-1"?>
<!-- Generator: Adobe Illustrator 19.0.0, SVG Export Plug-In . SVG Version: 6.00 Build 0)  -->
<svg version="1.1" id="Layer_1" xmlns="http://www.w3.org/2000/svg" xmlns:xlink="http://www.w3.org/1999/xlink" x="0px" y="0px"
	 viewBox="0 0 485 485" style="enable-background:new 0 0 485 485;" xml:space="preserve">
<g>
	<path d="M288.814,135.303c10.995-13.338,18.416-31.843,16.391-50.303c-15.835,0.645-35.031,10.547-46.392,23.855
		c-10.193,11.806-19.118,30.648-16.727,48.738C259.765,158.972,277.811,148.608,288.814,135.303z"/>
	<path d="M197.121,399.98c19.947-0.796,27.49-12.905,51.607-12.905c24.114,0,30.891,12.905,52.001,12.508
		c21.464-0.399,35.063-19.502,48.203-38.695c15.192-22.2,21.446-43.695,21.815-44.797c-0.478-0.219-41.855-16.069-42.27-63.72
		c-0.397-39.891,32.534-59.024,34.006-59.973c-18.502-27.079-47.326-30.786-57.597-31.216c-24.532-2.484-47.864,14.44-60.316,14.44
		c-12.415,0-31.627-14.073-51.97-13.704c-26.736,0.397-51.391,15.546-65.159,39.492c-27.779,48.203-7.114,119.613,19.962,158.708
		C160.634,379.255,176.407,400.749,197.121,399.98z"/>
	<path d="M0,0v485h485V0H0z M455,455H30V30h425V455z"/>
</g>
<g>
</g>
<g>
</g>
<g>
</g>
<g>
</g>
<g>
</g>
<g>
</g>
<g>
</g>
<g>
</g>
<g>
</g>
<g>
</g>
<g>
</g>
<g>
</g>
<g>
</g>
<g>
</g>
<g>
</g>
</svg>
